<?xml version="1.0" encoding="UTF-8"?>
<!DOCTYPE svg PUBLIC "-//W3C//DTD SVG 1.1//EN" "http://www.w3.org/Graphics/SVG/1.1/DTD/svg11.dtd">
<!-- Creator: CorelDRAW -->
<svg xmlns="http://www.w3.org/2000/svg" xml:space="preserve" width="701.553mm" height="187.256mm" version="1.1" style="shape-rendering:geometricPrecision; text-rendering:geometricPrecision; image-rendering:optimizeQuality; fill-rule:evenodd; clip-rule:evenodd"
viewBox="0 0 70155.3 18725.6"
 xmlns:xlink="http://www.w3.org/1999/xlink"
 xmlns:xodm="http://www.corel.com/coreldraw/odm/2003">
 <defs>
  <style type="text/css">
   <![CDATA[
    .str1 {stroke:#14B275;stroke-width:52.92;stroke-miterlimit:10}
    .str2 {stroke:#2B3990;stroke-width:529.17;stroke-miterlimit:10}
    .str0 {stroke:#14B275;stroke-width:35.28;stroke-miterlimit:10}
    .fil4 {fill:none;fill-rule:nonzero}
    .fil5 {fill:#16EA9E}
    .fil2 {fill:#2B3990}
    .fil1 {fill:#FDFDFF}
    .fil3 {fill:#14B275;fill-rule:nonzero}
    .fil0 {fill:#2B3990;fill-rule:nonzero}
   ]]>
  </style>
 </defs>
 <g id="Layer_x0020_1">
  <metadata id="CorelCorpID_0Corel-Layer"/>
  <polygon class="fil0" points="17072.96,18672.62 -15.53,18672.62 -15.53,-52.97 17072.96,-52.97 "/>
  <path class="fil1" d="M10284.88 1577.7l-1828.88 0 0 391.96 0 2574.83 1828.88 0c819.28,0 1483.38,664.14 1483.38,1483.36 0,819.28 -664.1,1483.43 -1483.38,1483.43l-3312.26 0 -884.66 0 -2082.12 0 0 2966.77 0 6583.83 2966.78 0 0 -6583.83 3312.26 0c1937.64,0 3586.01,-1238.33 4196.95,-2966.77 163.98,-463.96 253.23,-963.29 253.23,-1483.43 0,-520.09 -89.25,-1019.37 -253.23,-1483.36 -610.94,-1728.44 -2259.31,-2966.79 -4196.95,-2966.79z"/>
  <path class="fil2" d="M19051.66 10745.56l0 -7030.89 2277.73 0c863.2,0 1425.67,36.2 1687.41,105.81 403.76,103.03 740.68,331.36 1013.56,684.99 270.1,353.64 406.54,813.08 406.54,1372.76 0,431.6 -77.96,793.59 -233.89,1085.96 -158.72,295.16 -356.42,526.28 -598.67,693.35 -242.26,169.85 -487.29,281.23 -735.11,334.14 -339.72,66.82 -829.79,100.24 -1473.01,100.24l-924.46 0 0 2653.64 -1420.1 0zm1420.1 -5841.9l0 1996.49 776.88 0c559.69,0 932.81,-36.2 1122.16,-111.38 186.56,-75.18 334.14,-189.35 442.73,-348.07 108.6,-155.93 161.51,-336.92 161.51,-542.97 0,-256.18 -75.19,-467.8 -225.55,-634.87 -150.36,-164.29 -339.71,-270.1 -570.82,-311.87 -169.86,-30.63 -512.35,-47.33 -1021.92,-47.33l-684.99 0zm10743.3 5841.9l-1545.4 0 -612.59 -1598.31 -2812.36 0 -579.17 1598.31 -1506.42 0 2739.95 -7030.89 1500.85 0 2815.14 7030.89zm-2614.65 -2781.73l-969.01 -2609.08 -949.52 2609.08 1918.53 0zm3383.18 2781.73l0 -7030.89 1381.11 0 2876.4 4694.68 0 -4694.68 1319.86 0 0 7030.89 -1422.89 0 -2834.63 -4586.09 0 4586.09 -1319.85 0zm6791.41 -3472.29c0,-715.62 108.6,-1317.07 323.01,-1804.36 158.71,-359.2 378.69,-679.42 654.36,-963.44 275.66,-284.02 579.17,-495.64 907.74,-632.08 437.17,-186.56 943.95,-278.45 1517.56,-278.45 1035.84,0 1865.62,320.21 2486.57,963.44 620.94,643.22 932.81,1537.04 932.81,2681.48 0,1133.29 -309.08,2021.55 -924.46,2661.99 -618.16,643.22 -1445.16,963.44 -2478.21,963.44 -1044.19,0 -1876.76,-320.22 -2492.14,-957.87 -618.16,-637.65 -927.24,-1514.78 -927.24,-2634.15zm1464.65 -47.33c0,796.37 183.78,1400.6 551.34,1809.93 367.55,409.32 835.35,615.37 1400.61,615.37 565.25,0 1030.26,-203.27 1395.03,-612.59 361.99,-406.54 542.98,-1016.34 542.98,-1832.2 0,-804.73 -175.42,-1406.18 -529.05,-1804.37 -353.64,-398.18 -824.22,-595.88 -1408.96,-595.88 -584.75,0 -1055.33,200.48 -1414.54,601.45 -359.2,403.76 -537.41,1007.99 -537.41,1818.29zm6465.63 3519.62l0 -7030.89 2277.73 0c863.2,0 1425.67,36.2 1687.41,105.81 403.76,103.03 740.68,331.36 1013.56,684.99 270.1,353.64 406.54,813.08 406.54,1372.76 0,431.6 -77.96,793.59 -233.89,1085.96 -158.72,295.16 -356.42,526.28 -598.67,693.35 -242.26,169.85 -487.29,281.23 -735.11,334.14 -339.72,66.82 -829.79,100.24 -1473.01,100.24l-924.46 0 0 2653.64 -1420.1 0zm1420.1 -5841.9l0 1996.49 776.88 0c559.69,0 932.81,-36.2 1122.16,-111.38 186.56,-75.18 334.14,-189.35 442.73,-348.07 108.6,-155.93 161.51,-336.92 161.51,-542.97 0,-256.18 -75.19,-467.8 -225.55,-634.87 -150.36,-164.29 -339.71,-270.1 -570.82,-311.87 -169.86,-30.63 -512.35,-47.33 -1021.92,-47.33l-684.99 0zm6713.45 5841.9l0 -5841.9 -2085.59 0 0 -1188.99 5588.5 0 0 1188.99 -2082.81 0 0 5841.9 -1420.1 0zm4374.46 0l0 -7030.89 1420.11 0 0 7030.89 -1420.11 0zm7270.36 -2584.03l1378.33 434.38c-211.62,768.53 -562.47,1339.35 -1052.55,1709.69 -492.85,373.13 -1113.8,559.69 -1868.4,559.69 -932.81,0 -1701.34,-320.22 -2302.79,-957.87 -601.45,-637.65 -902.18,-1509.21 -902.18,-2614.66 0,-1172.28 303.51,-2080.02 907.75,-2728.81 604.24,-646.01 1397.82,-969.01 2383.54,-969.01 860.41,0 1559.32,253.39 2096.73,762.95 320.22,297.94 559.69,729.54 718.41,1294.8l-1406.18 334.14c-83.53,-364.77 -256.18,-651.57 -520.7,-863.2 -264.53,-211.62 -584.75,-317.43 -960.66,-317.43 -520.7,0 -943.95,186.56 -1269.73,562.47 -325.79,375.91 -487.29,980.15 -487.29,1818.28 0,888.26 161.5,1523.13 481.72,1899.04 320.21,375.91 735.11,565.25 1247.46,565.25 375.91,0 701.69,-119.73 974.57,-359.2 270.1,-239.47 465.02,-615.38 581.97,-1130.51z"/>
  <polygon class="fil0" points="51559.16,15061.32 18995.59,15061.32 18995.59,14740.27 51559.16,14740.27 "/>
  <polygon class="fil3" points="52421.21,15056.31 52421.21,13090.32 52818.3,13090.32 52818.3,15056.31 "/>
  <polygon class="fil4 str0" points="52818.32,13090.13 52421.34,13090.13 52421.34,15056.31 52818.32,15056.31 "/>
  <path class="fil3" d="M53200.7 15056.31l0 -1965.99 386.19 0 804.31 1312.74 0 -1312.74 369.05 0 0 1965.99 -397.86 0 -792.63 -1282.37 0 1282.37 -369.06 0zm1982.34 0l0 -1965.99 1347.77 0 0 332.47 -950.68 0 0 465.61 820.66 0 0 332.46 -820.66 0 0 835.45 -397.09 0zm1594.59 -970.93c0,-200.1 30.37,-368.28 90.32,-504.53 44.38,-100.45 105.89,-189.98 182.97,-269.4 77.09,-79.42 161.96,-138.59 253.83,-176.75 122.24,-52.17 263.95,-77.86 424.34,-77.86 289.65,0 521.67,89.54 695.3,269.4 173.63,179.86 260.84,429.79 260.84,749.8 0,316.9 -86.43,565.27 -258.5,744.35 -172.85,179.86 -404.1,269.4 -692.96,269.4 -291.98,0 -524.79,-89.54 -696.86,-267.84 -172.85,-178.3 -259.28,-423.57 -259.28,-736.57zm409.55 -13.23c0,222.68 51.39,391.64 154.16,506.09 102.78,114.46 233.59,172.08 391.65,172.08 158.05,0 288.08,-56.84 390.08,-171.3 101.22,-113.67 151.83,-284.19 151.83,-512.32 0,-225.02 -49.05,-393.2 -147.94,-504.54 -98.88,-111.34 -230.47,-166.62 -393.97,-166.62 -163.51,0 -295.1,56.06 -395.54,168.18 -100.44,112.9 -150.27,281.85 -150.27,508.43zm2250.18 984.16l0 -1633.52 -583.18 0 0 -332.47 1562.67 0 0 332.47 -582.4 0 0 1633.52 -397.09 0zm1235.66 0l0 -1965.99 1457.55 0 0 332.47 -1060.46 0 0 436.02 986.5 0 0 330.91 -986.5 0 0 535.68 1097.84 0 0 330.91 -1494.93 0zm3089.52 -722.55l385.41 121.46c-59.17,214.9 -157.28,374.52 -294.32,478.07 -137.81,104.33 -311.44,156.5 -522.44,156.5 -260.83,0 -475.73,-89.54 -643.91,-267.84 -168.18,-178.3 -252.27,-422.01 -252.27,-731.11 0,-327.8 84.87,-581.63 253.83,-763.04 168.95,-180.64 390.86,-270.96 666.49,-270.96 240.59,0 436.02,70.85 586.29,213.34 89.54,83.31 156.5,204 200.88,362.05l-393.2 93.44c-23.35,-102 -71.63,-182.2 -145.6,-241.37 -73.97,-59.18 -163.5,-88.76 -268.62,-88.76 -145.6,0 -263.95,52.16 -355.04,157.28 -91.1,105.11 -136.26,274.07 -136.26,508.43 0,248.37 45.16,425.9 134.7,531.01 89.54,105.11 205.55,158.06 348.82,158.06 105.11,0 196.2,-33.48 272.51,-100.44 75.53,-66.96 130.03,-172.08 162.73,-316.12zm727.22 722.55l0 -1965.99 397.09 0 0 773.94 777.83 0 0 -773.94 397.09 0 0 1965.99 -397.09 0 0 -859.58 -777.83 0 0 859.58 -397.09 0z"/>
  <polygon class="fil4 str1" points="53569.4,15056.31 53569.4,13774.12 54362.04,15056.31 54760.38,15056.31 54760.38,13090.13 54391.54,13090.13 54391.54,14403.14 53586.82,13090.13 53200.56,13090.13 53200.56,15056.31 "/>
  <polygon class="fil4 str1" points="55579.84,15056.31 55579.84,14220.74 56400.64,14220.74 56400.64,13888.13 55579.84,13888.13 55579.84,13422.74 56530.75,13422.74 56530.75,13090.13 55182.85,13090.13 55182.85,15056.31 "/>
  <path class="fil4 str1" d="M57036.36 14822.27c172.56,178.39 405.05,267.57 697.43,267.57 288.79,0 519.48,-89.63 692.05,-268.92 172.56,-179.24 258.85,-427.59 258.85,-745.02 0,-320.09 -86.96,-570.01 -260.86,-749.73 -173.92,-179.72 -405.71,-269.58 -695.41,-269.58 -160.07,0 -301.33,25.95 -423.82,77.79 -92.1,38.46 -176.82,97.47 -254.15,177.04 -77.35,79.59 -138.38,169.45 -183.07,269.58 -59.92,135.93 -89.87,304.01 -89.87,504.29 0,312.96 86.28,558.6 258.85,736.98zm300.44 -1258.04c100.12,-112.2 232.02,-168.32 395.64,-168.32 163.64,0 294.84,55.46 393.64,166.31 98.79,110.88 148.2,278.98 148.2,504.29 0,228 -50.75,399.01 -152.22,513 -101.48,114.01 -231.36,171.01 -389.62,171.01 -158.26,0 -288.81,-57.45 -391.62,-172.34 -102.83,-114.88 -154.25,-283.67 -154.25,-506.31 0,-226.2 50.08,-395.41 150.23,-507.64z"/>
  <polygon class="fil4 str1" points="59834.1,15056.31 59834.1,13422.74 60416.18,13422.74 60416.18,13090.13 58853.69,13090.13 58853.69,13422.74 59437.12,13422.74 59437.12,15056.31 "/>
  <polygon class="fil4 str1" points="62167.76,15056.31 62167.76,14725.04 61069.33,14725.04 61069.33,14189.91 62056.45,14189.91 62056.45,13858.62 61069.33,13858.62 61069.33,13422.74 62130.22,13422.74 62130.22,13090.13 60672.34,13090.13 60672.34,15056.31 "/>
  <path class="fil4 str1" d="M63598.82 14649.93c-76.01,67.06 -166.77,100.59 -272.26,100.59 -143.06,0 -259.31,-52.74 -348.7,-158.26 -89.43,-105.49 -134.13,-282.53 -134.13,-531.12 0,-234.24 45.37,-403.7 136.13,-508.31 90.74,-104.61 209,-156.91 354.75,-156.91 105.49,0 195.13,29.5 268.91,88.52 73.76,59 122.25,139.48 145.51,241.41l392.97 -93.89c-44.71,-157.36 -111.77,-278.06 -201.17,-362.12 -150.22,-142.16 -345.59,-213.25 -586.1,-213.25 -275.41,0 -497.59,90.53 -666.58,271.6 -168.99,181.05 -253.49,435.21 -253.49,762.46 0,309.38 84.04,553.25 252.15,731.62 168.09,178.39 382.68,267.57 643.78,267.57 211,0 385.13,-52.08 522.38,-156.25 137.26,-104.15 235.4,-263.54 294.41,-478.13l-384.94 -122.05c-33.08,143.96 -87.63,249.46 -163.62,316.52z"/>
  <polygon class="fil4 str1" points="64886.37,15056.31 64886.37,14196.61 65664.27,14196.61 65664.27,15056.31 66061.25,15056.31 66061.25,13090.13 65664.27,13090.13 65664.27,13863.99 64886.37,13863.99 64886.37,13090.13 64489.38,13090.13 64489.38,15056.31 "/>
  <polygon class="fil4 str2" points="70165.92,18682.59 10.65,18682.59 10.65,-43 70165.92,-43 "/>
  <path class="fil5" d="M7078.65 3061.09c0,859.66 -696.88,1556.54 -1556.54,1556.54 -859.65,0 -1556.54,-696.88 -1556.54,-1556.54 0,-859.65 696.89,-1556.54 1556.54,-1556.54 859.66,0 1556.54,696.89 1556.54,1556.54z"/>
 </g>
</svg>
